<svg width="646" height="70" viewBox="0 0 646 70" fill="none" xmlns="http://www.w3.org/2000/svg"><path d="M76.159 17.058a5.904 5.904 0 0 0-8.065-2.161L47.336 26.88a5.904 5.904 0 0 0 5.904 10.225l20.758-11.984a5.904 5.904 0 0 0 2.16-8.064Z" fill="#FBBF0E"/><path d="M3.828 23.001a5.904 5.904 0 0 1 2.16-8.065l20.76-11.983a5.904 5.904 0 0 1 5.904 10.225L11.891 25.162A5.904 5.904 0 0 1 3.828 23Z" fill="#EB4A3D"/><path d="M76.159 23.001a5.904 5.904 0 0 0-2.161-8.065L53.24 2.953a5.904 5.904 0 0 0-5.904 10.225l20.758 11.985A5.904 5.904 0 0 0 76.16 23Z" fill="#3CAB5A"/><path d="M3.828 17.058a5.904 5.904 0 0 1 8.064-2.161L32.65 26.88a5.904 5.904 0 0 1-5.904 10.225L5.99 25.123a5.904 5.904 0 0 1-2.161-8.064Z" fill="#498AF4"/><path d="M109.976 32.239c-2.424 0-4.656-.588-6.696-1.764-2.04-1.176-3.66-2.796-4.86-4.86-1.2-2.064-1.8-4.344-1.8-6.84 0-2.496.6-4.776 1.8-6.84 1.2-2.064 2.82-3.684 4.86-4.86 2.04-1.176 4.272-1.764 6.696-1.764 1.896 0 3.672.336 5.328 1.008 1.68.672 3.06 1.62 4.14 2.844l-2.196 2.196c-.816-1.008-1.86-1.776-3.132-2.304-1.272-.552-2.64-.828-4.104-.828-1.824 0-3.528.444-5.112 1.332-1.56.864-2.82 2.1-3.78 3.708-.936 1.584-1.404 3.42-1.404 5.508s.468 3.936 1.404 5.544a10.279 10.279 0 0 0 3.816 3.708 10.44 10.44 0 0 0 5.076 1.296c1.728 0 3.168-.264 4.32-.792a9.907 9.907 0 0 0 3.024-2.16c.624-.672 1.128-1.476 1.512-2.412.384-.96.624-2.016.72-3.168h-9.54v-2.844h12.384c.12.672.18 1.296.18 1.872 0 1.584-.252 3.132-.756 4.644a10.239 10.239 0 0 1-2.412 3.924c-2.376 2.568-5.532 3.852-9.468 3.852Zm25.581 0c-1.8 0-3.42-.432-4.86-1.296a9.194 9.194 0 0 1-3.384-3.528c-.792-1.488-1.188-3.132-1.188-4.932 0-1.8.396-3.444 1.188-4.932a9.194 9.194 0 0 1 3.384-3.528c1.44-.864 3.06-1.296 4.86-1.296 1.8 0 3.42.432 4.86 1.296a8.934 8.934 0 0 1 3.348 3.528c.816 1.488 1.224 3.132 1.224 4.932 0 1.8-.408 3.444-1.224 4.932a8.934 8.934 0 0 1-3.348 3.528c-1.44.864-3.06 1.296-4.86 1.296Zm0-2.772a6.175 6.175 0 0 0 3.132-.828c.984-.576 1.764-1.392 2.34-2.448.6-1.056.9-2.292.9-3.708 0-1.416-.3-2.652-.9-3.708-.576-1.056-1.356-1.86-2.34-2.412a5.977 5.977 0 0 0-3.132-.864 6.166 6.166 0 0 0-3.168.864c-.984.552-1.776 1.356-2.376 2.412-.576 1.056-.864 2.292-.864 3.708 0 1.416.288 2.652.864 3.708.6 1.056 1.392 1.872 2.376 2.448.984.552 2.04.828 3.168.828Zm22.166 2.772c-1.8 0-3.42-.432-4.86-1.296a9.194 9.194 0 0 1-3.384-3.528c-.792-1.488-1.188-3.132-1.188-4.932 0-1.8.396-3.444 1.188-4.932a9.194 9.194 0 0 1 3.384-3.528c1.44-.864 3.06-1.296 4.86-1.296 1.8 0 3.42.432 4.86 1.296a8.934 8.934 0 0 1 3.348 3.528c.816 1.488 1.224 3.132 1.224 4.932 0 1.8-.408 3.444-1.224 4.932a8.934 8.934 0 0 1-3.348 3.528c-1.44.864-3.06 1.296-4.86 1.296Zm0-2.772a6.175 6.175 0 0 0 3.132-.828c.984-.576 1.764-1.392 2.34-2.448.6-1.056.9-2.292.9-3.708 0-1.416-.3-2.652-.9-3.708-.576-1.056-1.356-1.86-2.34-2.412a5.977 5.977 0 0 0-3.132-.864 6.166 6.166 0 0 0-3.168.864c-.984.552-1.776 1.356-2.376 2.412-.576 1.056-.864 2.292-.864 3.708 0 1.416.288 2.652.864 3.708.6 1.056 1.392 1.872 2.376 2.448.984.552 2.04.828 3.168.828Zm21.769 10.548c-2.16 0-3.948-.504-5.364-1.512-1.392-1.008-2.328-2.22-2.808-3.636l2.772-1.188a5.42 5.42 0 0 0 2.016 2.556c.96.672 2.088 1.008 3.384 1.008 1.896 0 3.36-.552 4.392-1.656 1.056-1.104 1.584-2.664 1.584-4.68v-2.052h-.144c-.6.936-1.452 1.704-2.556 2.304-1.08.576-2.316.864-3.708.864-1.584 0-3.036-.408-4.356-1.224-1.296-.816-2.328-1.956-3.096-3.42-.768-1.464-1.152-3.132-1.152-5.004 0-1.848.384-3.504 1.152-4.968.768-1.488 1.8-2.64 3.096-3.456 1.32-.816 2.772-1.224 4.356-1.224 1.392 0 2.628.3 3.708.9 1.104.576 1.956 1.344 2.556 2.304h.144v-2.628h2.916v17.64c0 2.952-.816 5.196-2.448 6.732-1.632 1.56-3.78 2.34-6.444 2.34Zm0-10.764c1.104 0 2.1-.276 2.988-.828.912-.552 1.632-1.344 2.16-2.376.552-1.032.828-2.256.828-3.672 0-1.44-.276-2.676-.828-3.708-.528-1.032-1.248-1.812-2.16-2.34-.888-.552-1.884-.828-2.988-.828a5.728 5.728 0 0 0-3.024.828c-.912.552-1.644 1.344-2.196 2.376-.528 1.032-.792 2.256-.792 3.672 0 1.416.264 2.652.792 3.708.552 1.032 1.284 1.824 2.196 2.376.912.528 1.92.792 3.024.792Zm14.136-23.364h3.06v25.776h-3.06V5.887Zm16.31 26.352c-1.752 0-3.324-.42-4.716-1.26-1.392-.84-2.484-1.992-3.276-3.456-.768-1.488-1.152-3.156-1.152-5.004 0-1.776.36-3.408 1.08-4.896.744-1.488 1.788-2.676 3.132-3.564 1.344-.888 2.904-1.332 4.68-1.332 1.8 0 3.36.408 4.68 1.224 1.32.792 2.328 1.896 3.024 3.312.72 1.416 1.08 3.036 1.08 4.86 0 .36-.036.672-.108.936h-14.508c.072 1.392.408 2.568 1.008 3.528.6.96 1.356 1.68 2.268 2.16.936.48 1.908.72 2.916.72 2.352 0 4.164-1.104 5.436-3.312l2.592 1.26c-.792 1.488-1.872 2.664-3.24 3.528-1.344.864-2.976 1.296-4.896 1.296Zm5.292-11.7c-.048-.768-.264-1.536-.648-2.304-.384-.768-.996-1.416-1.836-1.944-.816-.528-1.848-.792-3.096-.792-1.44 0-2.664.468-3.672 1.404-.984.912-1.632 2.124-1.944 3.636h11.196Zm17.241-14.652h7.776c2.64 0 4.944.552 6.912 1.656 1.968 1.08 3.48 2.592 4.536 4.536 1.056 1.944 1.584 4.176 1.584 6.696 0 2.52-.528 4.752-1.584 6.696s-2.568 3.468-4.536 4.572c-1.968 1.08-4.272 1.62-6.912 1.62h-7.776V5.887Zm7.776 22.86c3.048 0 5.46-.876 7.236-2.628 1.8-1.752 2.7-4.2 2.7-7.344s-.9-5.592-2.7-7.344c-1.776-1.752-4.188-2.628-7.236-2.628h-4.752v19.944h4.752Zm25.289 3.492c-1.752 0-3.324-.42-4.716-1.26-1.392-.84-2.484-1.992-3.276-3.456-.768-1.488-1.152-3.156-1.152-5.004 0-1.776.36-3.408 1.08-4.896.744-1.488 1.788-2.676 3.132-3.564 1.344-.888 2.904-1.332 4.68-1.332 1.8 0 3.36.408 4.68 1.224 1.32.792 2.328 1.896 3.024 3.312.72 1.416 1.08 3.036 1.08 4.86 0 .36-.036.672-.108.936h-14.508c.072 1.392.408 2.568 1.008 3.528.6.96 1.356 1.68 2.268 2.16.936.48 1.908.72 2.916.72 2.352 0 4.164-1.104 5.436-3.312l2.592 1.26c-.792 1.488-1.872 2.664-3.24 3.528-1.344.864-2.976 1.296-4.896 1.296Zm5.292-11.7c-.048-.768-.264-1.536-.648-2.304-.384-.768-.996-1.416-1.836-1.944-.816-.528-1.848-.792-3.096-.792-1.44 0-2.664.468-3.672 1.404-.984.912-1.632 2.124-1.944 3.636h11.196Zm5.174-7.236h3.276l5.688 14.76h.072l5.76-14.76h3.204l-7.488 18.36h-3.096l-7.416-18.36Zm28.872 18.936c-1.752 0-3.324-.42-4.716-1.26-1.392-.84-2.484-1.992-3.276-3.456-.768-1.488-1.152-3.156-1.152-5.004 0-1.776.36-3.408 1.08-4.896.744-1.488 1.788-2.676 3.132-3.564 1.344-.888 2.904-1.332 4.68-1.332 1.8 0 3.36.408 4.68 1.224 1.32.792 2.328 1.896 3.024 3.312.72 1.416 1.08 3.036 1.08 4.86 0 .36-.036.672-.108.936H298.79c.072 1.392.408 2.568 1.008 3.528.6.96 1.356 1.68 2.268 2.16.936.48 1.908.72 2.916.72 2.352 0 4.164-1.104 5.436-3.312l2.592 1.26c-.792 1.488-1.872 2.664-3.24 3.528-1.344.864-2.976 1.296-4.896 1.296Zm5.292-11.7c-.048-.768-.264-1.536-.648-2.304-.384-.768-.996-1.416-1.836-1.944-.816-.528-1.848-.792-3.096-.792-1.44 0-2.664.468-3.672 1.404-.984.912-1.632 2.124-1.944 3.636h11.196Zm7.542-14.652h3.06v25.776h-3.06V5.887Zm16.598 26.352c-1.8 0-3.42-.432-4.86-1.296a9.194 9.194 0 0 1-3.384-3.528c-.792-1.488-1.188-3.132-1.188-4.932 0-1.8.396-3.444 1.188-4.932a9.194 9.194 0 0 1 3.384-3.528c1.44-.864 3.06-1.296 4.86-1.296 1.8 0 3.42.432 4.86 1.296a8.934 8.934 0 0 1 3.348 3.528c.816 1.488 1.224 3.132 1.224 4.932 0 1.8-.408 3.444-1.224 4.932a8.934 8.934 0 0 1-3.348 3.528c-1.44.864-3.06 1.296-4.86 1.296Zm0-2.772a6.175 6.175 0 0 0 3.132-.828c.984-.576 1.764-1.392 2.34-2.448.6-1.056.9-2.292.9-3.708 0-1.416-.3-2.652-.9-3.708-.576-1.056-1.356-1.86-2.34-2.412a5.977 5.977 0 0 0-3.132-.864 6.166 6.166 0 0 0-3.168.864c-.984.552-1.776 1.356-2.376 2.412-.576 1.056-.864 2.292-.864 3.708 0 1.416.288 2.652.864 3.708.6 1.056 1.392 1.872 2.376 2.448.984.552 2.04.828 3.168.828Zm13.385-16.164h2.916v2.736h.144c.552-.936 1.38-1.716 2.484-2.34 1.128-.648 2.388-.972 3.78-.972 1.632 0 3.12.42 4.464 1.26 1.344.84 2.4 2.004 3.168 3.492.768 1.488 1.152 3.156 1.152 5.004 0 1.872-.384 3.552-1.152 5.04-.768 1.464-1.824 2.616-3.168 3.456-1.344.84-2.832 1.26-4.464 1.26-1.392 0-2.652-.312-3.78-.936-1.104-.648-1.932-1.428-2.484-2.34h-.144l.144 2.52v7.956h-3.06V13.303Zm8.964 16.164c1.056 0 2.052-.288 2.988-.864.936-.576 1.68-1.392 2.232-2.448.576-1.08.864-2.304.864-3.672 0-1.368-.288-2.58-.864-3.636-.552-1.08-1.296-1.908-2.232-2.484-.936-.576-1.932-.864-2.988-.864s-2.052.288-2.988.864c-.936.576-1.68 1.392-2.232 2.448-.552 1.056-.828 2.28-.828 3.672 0 1.392.276 2.616.828 3.672.552 1.056 1.296 1.872 2.232 2.448.936.576 1.932.864 2.988.864Zm21.588 2.772c-1.752 0-3.324-.42-4.716-1.26-1.392-.84-2.484-1.992-3.276-3.456-.768-1.488-1.152-3.156-1.152-5.004 0-1.776.36-3.408 1.08-4.896.744-1.488 1.788-2.676 3.132-3.564 1.344-.888 2.904-1.332 4.68-1.332 1.8 0 3.36.408 4.68 1.224 1.32.792 2.328 1.896 3.024 3.312.72 1.416 1.08 3.036 1.08 4.86 0 .36-.036.672-.108.936h-14.508c.072 1.392.408 2.568 1.008 3.528.6.96 1.356 1.68 2.268 2.16.936.48 1.908.72 2.916.72 2.352 0 4.164-1.104 5.436-3.312l2.592 1.26c-.792 1.488-1.872 2.664-3.24 3.528-1.344.864-2.976 1.296-4.896 1.296Zm5.292-11.7c-.048-.768-.264-1.536-.648-2.304-.384-.768-.996-1.416-1.836-1.944-.816-.528-1.848-.792-3.096-.792-1.44 0-2.664.468-3.672 1.404-.984.912-1.632 2.124-1.944 3.636h11.196Zm7.541-7.236h2.916v2.952h.144c.36-1.008 1.056-1.836 2.088-2.484 1.032-.672 2.112-1.008 3.24-1.008.84 0 1.56.12 2.16.36v3.312c-.768-.384-1.632-.576-2.592-.576-.888 0-1.704.252-2.448.756s-1.344 1.188-1.8 2.052a5.894 5.894 0 0 0-.648 2.736v10.26h-3.06v-18.36Zm30.029 18.936c-2.016 0-3.864-.612-5.544-1.836-1.68-1.224-2.832-2.94-3.456-5.148l2.916-1.188c.408 1.536 1.164 2.796 2.268 3.78 1.104.984 2.4 1.476 3.888 1.476s2.748-.396 3.78-1.188c1.032-.816 1.548-1.92 1.548-3.312 0-1.2-.444-2.184-1.332-2.952-.864-.792-2.292-1.524-4.284-2.196l-1.62-.576c-1.824-.648-3.312-1.5-4.464-2.556-1.152-1.056-1.728-2.52-1.728-4.392 0-1.224.336-2.352 1.008-3.384.672-1.056 1.608-1.896 2.808-2.52 1.2-.624 2.544-.936 4.032-.936s2.784.276 3.888.828c1.104.552 1.98 1.224 2.628 2.016.672.792 1.14 1.572 1.404 2.34l-2.88 1.224c-.24-.888-.792-1.692-1.656-2.412-.84-.72-1.956-1.08-3.348-1.08-1.32 0-2.448.372-3.384 1.116-.936.744-1.404 1.68-1.404 2.808 0 1.008.396 1.836 1.188 2.484.792.624 1.992 1.212 3.6 1.764l1.692.576c2.184.792 3.888 1.788 5.112 2.988 1.224 1.176 1.836 2.784 1.836 4.824 0 1.656-.432 3.048-1.296 4.176a7.411 7.411 0 0 1-3.204 2.484 10.499 10.499 0 0 1-3.996.792Zm19.23-.288c-.744 0-1.44-.12-2.088-.36a4.767 4.767 0 0 1-1.584-.972 4.437 4.437 0 0 1-1.08-1.584c-.24-.6-.36-1.332-.36-2.196V16.075h-3.204v-2.772h3.204V8.119h3.06v5.184h4.464v2.772h-4.464v10.008c0 1.008.192 1.752.576 2.232.456.528 1.116.792 1.98.792.696 0 1.368-.204 2.016-.612v2.988a4.66 4.66 0 0 1-1.116.36c-.36.072-.828.108-1.404.108Zm13.507.288c-2.208 0-3.9-.648-5.076-1.944-1.152-1.296-1.728-3.108-1.728-5.436V13.303h3.06v11.088c0 1.752.396 3.036 1.188 3.852.792.816 1.86 1.224 3.204 1.224 1.032 0 1.944-.276 2.736-.828a5.433 5.433 0 0 0 1.872-2.16 6.065 6.065 0 0 0 .684-2.808V13.303h3.06v18.36h-2.916v-2.664h-.144c-.504.912-1.308 1.68-2.412 2.304a7.058 7.058 0 0 1-3.528.936Zm21.84 0c-1.632 0-3.12-.42-4.464-1.26-1.32-.84-2.364-1.992-3.132-3.456-.768-1.488-1.152-3.168-1.152-5.04 0-1.848.384-3.516 1.152-5.004.768-1.488 1.812-2.652 3.132-3.492 1.344-.84 2.832-1.26 4.464-1.26 1.416 0 2.676.324 3.78.972 1.104.624 1.944 1.404 2.52 2.34h.144l-.144-2.556V5.887h3.06v25.776h-2.916v-2.7h-.144c-.576.912-1.416 1.692-2.52 2.34-1.104.624-2.364.936-3.78.936Zm.36-2.772c1.08 0 2.076-.288 2.988-.864.936-.576 1.68-1.392 2.232-2.448.576-1.056.864-2.28.864-3.672 0-1.392-.288-2.616-.864-3.672-.552-1.056-1.296-1.872-2.232-2.448a5.487 5.487 0 0 0-2.988-.864c-1.056 0-2.052.288-2.988.864-.936.576-1.692 1.404-2.268 2.484-.552 1.056-.828 2.268-.828 3.636 0 1.368.276 2.592.828 3.672.576 1.056 1.332 1.872 2.268 2.448.936.576 1.932.864 2.988.864Zm22.237 2.772c-1.752 0-3.324-.42-4.716-1.26-1.392-.84-2.484-1.992-3.276-3.456-.768-1.488-1.152-3.156-1.152-5.004 0-1.776.36-3.408 1.08-4.896.744-1.488 1.788-2.676 3.132-3.564 1.344-.888 2.904-1.332 4.68-1.332 1.8 0 3.36.408 4.68 1.224 1.32.792 2.328 1.896 3.024 3.312.72 1.416 1.08 3.036 1.08 4.86 0 .36-.036.672-.108.936h-14.508c.072 1.392.408 2.568 1.008 3.528.6.96 1.356 1.68 2.268 2.16.936.48 1.908.72 2.916.72 2.352 0 4.164-1.104 5.436-3.312l2.592 1.26c-.792 1.488-1.872 2.664-3.24 3.528-1.344.864-2.976 1.296-4.896 1.296Zm5.292-11.7c-.048-.768-.264-1.536-.648-2.304-.384-.768-.996-1.416-1.836-1.944-.816-.528-1.848-.792-3.096-.792-1.44 0-2.664.468-3.672 1.404-.984.912-1.632 2.124-1.944 3.636h11.196Zm7.541-7.236h2.916v2.7h.144c.504-.912 1.308-1.68 2.412-2.304a6.857 6.857 0 0 1 3.528-.972c2.208 0 3.888.648 5.04 1.944 1.176 1.272 1.764 3.012 1.764 5.22v11.772h-3.06V20.359c0-1.704-.408-2.94-1.224-3.708-.816-.768-1.932-1.152-3.348-1.152a4.55 4.55 0 0 0-2.664.828c-.768.552-1.368 1.284-1.8 2.196a6.339 6.339 0 0 0-.648 2.808v10.332h-3.06v-18.36Zm27.042 18.648c-.744 0-1.44-.12-2.088-.36a4.767 4.767 0 0 1-1.584-.972 4.437 4.437 0 0 1-1.08-1.584c-.24-.6-.36-1.332-.36-2.196V16.075h-3.204v-2.772h3.204V8.119h3.06v5.184h4.464v2.772h-4.464v10.008c0 1.008.192 1.752.576 2.232.456.528 1.116.792 1.98.792.696 0 1.368-.204 2.016-.612v2.988a4.66 4.66 0 0 1-1.116.36c-.36.072-.828.108-1.404.108Zm27.939.288c-2.496 0-4.764-.588-6.804-1.764a12.926 12.926 0 0 1-4.824-4.824c-1.152-2.064-1.728-4.356-1.728-6.876 0-2.52.576-4.8 1.728-6.84a12.85 12.85 0 0 1 4.824-4.86c2.04-1.176 4.308-1.764 6.804-1.764 1.92 0 3.672.372 5.256 1.116 1.608.72 3 1.752 4.176 3.096l-2.196 2.124c-.984-1.176-2.064-2.04-3.24-2.592-1.152-.552-2.484-.828-3.996-.828-1.872 0-3.588.444-5.148 1.332-1.56.864-2.808 2.1-3.744 3.708-.912 1.584-1.368 3.42-1.368 5.508s.456 3.936 1.368 5.544c.936 1.584 2.184 2.82 3.744 3.708 1.56.864 3.276 1.296 5.148 1.296 3.12 0 5.772-1.284 7.956-3.852l2.232 2.16c-1.2 1.416-2.676 2.544-4.428 3.384-1.752.816-3.672 1.224-5.76 1.224Zm14.344-26.352h3.06v25.776h-3.06V5.887Zm14.974 26.352c-2.208 0-3.9-.648-5.076-1.944-1.152-1.296-1.728-3.108-1.728-5.436V13.303h3.06v11.088c0 1.752.396 3.036 1.188 3.852.792.816 1.86 1.224 3.204 1.224 1.032 0 1.944-.276 2.736-.828a5.433 5.433 0 0 0 1.872-2.16 6.065 6.065 0 0 0 .684-2.808V13.303h3.06v18.36h-2.916v-2.664h-.144c-.504.912-1.308 1.68-2.412 2.304a7.058 7.058 0 0 1-3.528.936Zm23.564 0c-1.392 0-2.652-.312-3.78-.936-1.104-.648-1.932-1.428-2.484-2.34h-.144v2.7h-2.916V5.887h3.06v7.596l-.144 2.556h.144c.552-.936 1.38-1.716 2.484-2.34 1.128-.648 2.388-.972 3.78-.972 1.632 0 3.12.42 4.464 1.26 1.344.84 2.4 2.004 3.168 3.492.768 1.488 1.152 3.156 1.152 5.004 0 1.872-.384 3.552-1.152 5.04-.768 1.464-1.824 2.616-3.168 3.456-1.344.84-2.832 1.26-4.464 1.26Zm-.36-2.772c1.056 0 2.052-.288 2.988-.864.936-.576 1.68-1.392 2.232-2.448.576-1.08.864-2.304.864-3.672 0-1.368-.288-2.58-.864-3.636-.552-1.08-1.296-1.908-2.232-2.484-.936-.576-1.932-.864-2.988-.864s-2.052.288-2.988.864c-.936.576-1.68 1.392-2.232 2.448-.552 1.056-.828 2.28-.828 3.672 0 1.392.276 2.616.828 3.672.552 1.056 1.296 1.872 2.232 2.448.936.576 1.932.864 2.988.864Zm19.644 2.772c-1.968 0-3.612-.456-4.932-1.368-1.32-.936-2.256-2.124-2.808-3.564l2.736-1.224c.456 1.104 1.128 1.956 2.016 2.556.912.6 1.908.9 2.988.9 1.152 0 2.136-.228 2.952-.684.816-.48 1.224-1.152 1.224-2.016 0-.768-.324-1.38-.972-1.836-.648-.48-1.668-.888-3.06-1.224l-2.232-.576c-1.464-.36-2.664-.972-3.6-1.836-.936-.864-1.404-1.98-1.404-3.348 0-1.056.312-1.98.936-2.772.648-.816 1.5-1.44 2.556-1.872 1.056-.432 2.196-.648 3.42-.648 1.608 0 3.036.348 4.284 1.044 1.272.696 2.172 1.668 2.7 2.916l-2.664 1.224c-.816-1.632-2.268-2.448-4.356-2.448-1.008 0-1.896.24-2.664.72-.744.456-1.116 1.044-1.116 1.764 0 .672.264 1.224.792 1.656.528.408 1.32.744 2.376 1.008l2.664.684c1.8.456 3.156 1.14 4.068 2.052.912.888 1.368 1.98 1.368 3.276 0 1.128-.324 2.124-.972 2.988-.648.84-1.524 1.488-2.628 1.944-1.104.456-2.328.684-3.672.684ZM102.59 65.031c-1.181 0-2.231-.268-3.151-.805a5.669 5.669 0 0 1-2.139-2.277c-.506-.981-.759-2.108-.759-3.381V48.195h1.955V58.66c0 1.334.353 2.423 1.058 3.266.705.828 1.717 1.242 3.036 1.242s2.331-.414 3.036-1.242c.721-.843 1.081-1.932 1.081-3.266V48.195h1.932v10.373c0 1.273-.245 2.4-.736 3.381a5.19 5.19 0 0 1-2.093 2.277c-.905.537-1.978.805-3.22.805Zm8.863-12.098h1.863v1.725h.092c.322-.583.836-1.073 1.541-1.472a4.38 4.38 0 0 1 2.254-.621c1.411 0 2.484.414 3.22 1.242.751.813 1.127 1.924 1.127 3.335v7.521h-1.955v-7.222c0-1.089-.261-1.878-.782-2.369-.521-.49-1.234-.736-2.139-.736-.629 0-1.196.176-1.702.529-.491.353-.874.82-1.15 1.403a4.05 4.05 0 0 0-.414 1.794v6.601h-1.955v-11.73Zm14.043-2.162c-.384 0-.713-.138-.989-.414a1.35 1.35 0 0 1-.415-.989c0-.383.139-.705.415-.966.276-.276.605-.414.989-.414.383 0 .712.138.988.414.276.26.415.583.415.966s-.139.713-.415.989a1.3 1.3 0 0 1-.988.414Zm-.967 2.162h1.933v11.73h-1.933v-11.73Zm3.717 0h2.093l3.634 9.43h.046l3.68-9.43h2.047l-4.784 11.73h-1.978l-4.738-11.73Zm17.987 12.098c-1.12 0-2.124-.268-3.013-.805a5.682 5.682 0 0 1-2.093-2.208c-.491-.95-.736-2.016-.736-3.197 0-1.135.23-2.177.69-3.128a5.758 5.758 0 0 1 2.001-2.277c.858-.567 1.855-.851 2.99-.851 1.15 0 2.146.26 2.99.782a4.969 4.969 0 0 1 1.932 2.116c.46.905.69 1.94.69 3.105 0 .23-.023.43-.069.598h-9.269c.046.89.26 1.64.644 2.254.383.613.866 1.073 1.449 1.38.598.307 1.219.46 1.863.46 1.502 0 2.66-.705 3.473-2.116l1.656.805a5.874 5.874 0 0 1-2.07 2.254c-.859.552-1.902.828-3.128.828Zm3.381-7.475a3.82 3.82 0 0 0-.414-1.472c-.246-.49-.637-.905-1.173-1.242-.522-.337-1.181-.506-1.978-.506-.92 0-1.702.299-2.346.897-.629.583-1.043 1.357-1.242 2.323h7.153Zm4.357-4.623h1.863v1.886h.092c.23-.644.675-1.173 1.334-1.587.66-.43 1.35-.644 2.07-.644.537 0 .997.077 1.38.23v2.116a3.648 3.648 0 0 0-1.656-.368c-.567 0-1.088.161-1.564.483a3.557 3.557 0 0 0-1.15 1.311 3.766 3.766 0 0 0-.414 1.748v6.555h-1.955v-11.73Zm12.27 12.098c-1.257 0-2.307-.291-3.151-.874-.843-.598-1.441-1.357-1.794-2.277l1.748-.782c.292.705.721 1.25 1.288 1.633a3.404 3.404 0 0 0 1.909.575c.736 0 1.365-.146 1.886-.437.522-.307.782-.736.782-1.288 0-.49-.207-.882-.621-1.173-.414-.307-1.065-.567-1.955-.782l-1.426-.368c-.935-.23-1.702-.621-2.3-1.173-.598-.552-.897-1.265-.897-2.139 0-.675.2-1.265.598-1.771.414-.521.959-.92 1.633-1.196a5.716 5.716 0 0 1 2.185-.414c1.028 0 1.94.222 2.737.667.813.445 1.388 1.066 1.725 1.863l-1.702.782c-.521-1.043-1.449-1.564-2.783-1.564-.644 0-1.211.153-1.702.46-.475.291-.713.667-.713 1.127 0 .43.169.782.506 1.058.338.26.844.475 1.518.644l1.702.437c1.15.291 2.017.728 2.599 1.311.583.567.874 1.265.874 2.093 0 .72-.207 1.357-.621 1.909-.414.537-.973.95-1.679 1.242-.705.291-1.487.437-2.346.437Zm7.815-14.26a1.35 1.35 0 0 1-.989-.414 1.35 1.35 0 0 1-.414-.989c0-.383.138-.705.414-.966a1.35 1.35 0 0 1 .989-.414c.383 0 .713.138.989.414.276.26.414.583.414.966s-.138.713-.414.989c-.261.276-.59.414-.989.414Zm-.966 2.162h1.932v11.73h-1.932v-11.73Zm9.4 11.914a3.81 3.81 0 0 1-1.334-.23 3.051 3.051 0 0 1-1.012-.621 2.851 2.851 0 0 1-.69-1.012c-.153-.383-.23-.851-.23-1.403v-6.877h-2.047v-1.771h2.047v-3.312h1.955v3.312h2.852v1.771h-2.852v6.394c0 .644.123 1.12.368 1.426.292.337.713.506 1.265.506.445 0 .874-.13 1.288-.391v1.909c-.23.107-.467.184-.713.23a4.73 4.73 0 0 1-.897.069Zm7.439.184c-.858 0-1.625-.169-2.3-.506-.674-.337-1.196-.797-1.564-1.38-.368-.598-.552-1.273-.552-2.024 0-1.242.468-2.208 1.403-2.898.936-.705 2.116-1.058 3.542-1.058a7.87 7.87 0 0 1 1.955.23c.614.153 1.081.33 1.403.529v-.713c0-.874-.306-1.572-.92-2.093-.613-.537-1.387-.805-2.323-.805-.659 0-1.265.146-1.817.437a3.237 3.237 0 0 0-1.311 1.173l-1.472-1.104c.46-.705 1.089-1.257 1.886-1.656.813-.399 1.71-.598 2.691-.598 1.595 0 2.845.422 3.749 1.265.92.828 1.38 1.963 1.38 3.404v7.429h-1.863v-1.679h-.092c-.337.567-.843 1.05-1.518 1.449-.674.399-1.433.598-2.277.598Zm.184-1.725c.66 0 1.273-.169 1.84-.506a3.826 3.826 0 0 0 1.357-1.357 3.572 3.572 0 0 0 .506-1.863c-.368-.245-.82-.445-1.357-.598a6.165 6.165 0 0 0-1.702-.23c-1.073 0-1.886.222-2.438.667-.536.445-.805 1.02-.805 1.725 0 .644.246 1.165.736 1.564.491.399 1.112.598 1.863.598Zm12.268 1.725c-1.257 0-2.308-.291-3.151-.874-.843-.598-1.441-1.357-1.794-2.277l1.748-.782c.291.705.721 1.25 1.288 1.633a3.404 3.404 0 0 0 1.909.575c.736 0 1.365-.146 1.886-.437.521-.307.782-.736.782-1.288 0-.49-.207-.882-.621-1.173-.414-.307-1.066-.567-1.955-.782l-1.426-.368c-.935-.23-1.702-.621-2.3-1.173-.598-.552-.897-1.265-.897-2.139 0-.675.199-1.265.598-1.771.414-.521.958-.92 1.633-1.196a5.716 5.716 0 0 1 2.185-.414c1.027 0 1.94.222 2.737.667.813.445 1.388 1.066 1.725 1.863l-1.702.782c-.521-1.043-1.449-1.564-2.783-1.564-.644 0-1.211.153-1.702.46-.475.291-.713.667-.713 1.127 0 .43.169.782.506 1.058.337.26.843.475 1.518.644l1.702.437c1.15.291 2.016.728 2.599 1.311.583.567.874 1.265.874 2.093 0 .72-.207 1.357-.621 1.909-.414.537-.974.95-1.679 1.242-.705.291-1.487.437-2.346.437Zm12.514-16.836h2.392l8.257 13.11h.092l-.092-3.174v-9.936h1.955v16.468h-2.024l-8.648-13.731h-.092l.092 3.174v10.557h-1.932V48.195Zm21.114 16.836c-1.119 0-2.124-.268-3.013-.805a5.69 5.69 0 0 1-2.093-2.208c-.491-.95-.736-2.016-.736-3.197 0-1.135.23-2.177.69-3.128a5.758 5.758 0 0 1 2.001-2.277c.859-.567 1.855-.851 2.99-.851 1.15 0 2.147.26 2.99.782a4.969 4.969 0 0 1 1.932 2.116c.46.905.69 1.94.69 3.105 0 .23-.023.43-.069.598h-9.269c.046.89.261 1.64.644 2.254.383.613.866 1.073 1.449 1.38.598.307 1.219.46 1.863.46 1.503 0 2.66-.705 3.473-2.116l1.656.805a5.874 5.874 0 0 1-2.07 2.254c-.859.552-1.901.828-3.128.828Zm3.381-7.475a3.82 3.82 0 0 0-.414-1.472c-.245-.49-.636-.905-1.173-1.242-.521-.337-1.181-.506-1.978-.506-.92 0-1.702.299-2.346.897-.629.583-1.043 1.357-1.242 2.323h7.153Zm9.622 12.443c-1.38 0-2.522-.322-3.427-.966-.889-.644-1.487-1.418-1.794-2.323l1.771-.759c.261.675.69 1.219 1.288 1.633.613.43 1.334.644 2.162.644 1.211 0 2.147-.353 2.806-1.058.675-.705 1.012-1.702 1.012-2.99v-1.311h-.092c-.383.598-.928 1.089-1.633 1.472-.69.368-1.48.552-2.369.552-1.012 0-1.94-.26-2.783-.782-.828-.521-1.487-1.25-1.978-2.185-.491-.935-.736-2.001-.736-3.197 0-1.18.245-2.239.736-3.174.491-.95 1.15-1.687 1.978-2.208a5.19 5.19 0 0 1 2.783-.782c.889 0 1.679.192 2.369.575.705.368 1.25.859 1.633 1.472h.092v-1.679h1.863v11.27c0 1.886-.521 3.32-1.564 4.301-1.043.997-2.415 1.495-4.117 1.495Zm0-6.877a3.54 3.54 0 0 0 1.909-.529c.583-.353 1.043-.859 1.38-1.518.353-.66.529-1.441.529-2.346 0-.92-.176-1.71-.529-2.369-.337-.66-.797-1.158-1.38-1.495a3.543 3.543 0 0 0-1.909-.529c-.705 0-1.349.176-1.932.529-.583.353-1.05.859-1.403 1.518-.337.66-.506 1.441-.506 2.346s.169 1.694.506 2.369c.353.66.82 1.165 1.403 1.518a3.788 3.788 0 0 0 1.932.506Zm13.68 1.909c-1.119 0-2.123-.268-3.013-.805a5.69 5.69 0 0 1-2.093-2.208c-.49-.95-.736-2.016-.736-3.197 0-1.135.23-2.177.69-3.128a5.774 5.774 0 0 1 2.001-2.277c.859-.567 1.856-.851 2.99-.851 1.15 0 2.147.26 2.99.782a4.957 4.957 0 0 1 1.932 2.116c.46.905.69 1.94.69 3.105 0 .23-.023.43-.069.598h-9.269c.046.89.261 1.64.644 2.254.384.613.867 1.073 1.449 1.38.598.307 1.219.46 1.863.46 1.503 0 2.661-.705 3.473-2.116l1.656.805a5.874 5.874 0 0 1-2.07 2.254c-.858.552-1.901.828-3.128.828Zm3.381-7.475a3.785 3.785 0 0 0-.414-1.472c-.245-.49-.636-.905-1.173-1.242-.521-.337-1.18-.506-1.978-.506-.92 0-1.702.299-2.346.897-.628.583-1.042 1.357-1.242 2.323h7.153Zm4.358-4.623h1.863v1.886h.092c.23-.644.675-1.173 1.334-1.587.66-.43 1.35-.644 2.07-.644.537 0 .997.077 1.38.23v2.116a3.648 3.648 0 0 0-1.656-.368c-.567 0-1.088.161-1.564.483a3.557 3.557 0 0 0-1.15 1.311 3.766 3.766 0 0 0-.414 1.748v6.555h-1.955v-11.73Zm9.775-2.162a1.35 1.35 0 0 1-.989-.414 1.35 1.35 0 0 1-.414-.989c0-.383.138-.705.414-.966a1.35 1.35 0 0 1 .989-.414c.384 0 .713.138.989.414.276.26.414.583.414.966s-.138.713-.414.989a1.3 1.3 0 0 1-.989.414Zm-.966 2.162h1.932v11.73h-1.932v-11.73Zm10.742-4.738h2.829l5.244 13.501h.092l5.244-13.501h2.829v16.468h-1.932V54.198l.092-3.128h-.092l-5.382 13.593h-1.61l-5.382-13.593h-.092l.092 3.128v10.465h-1.932V48.195Zm22.944 16.836c-.859 0-1.626-.169-2.3-.506-.675-.337-1.196-.797-1.564-1.38-.368-.598-.552-1.273-.552-2.024 0-1.242.467-2.208 1.403-2.898.935-.705 2.116-1.058 3.542-1.058.705 0 1.357.077 1.955.23.613.153 1.081.33 1.403.529v-.713c0-.874-.307-1.572-.92-2.093-.614-.537-1.388-.805-2.323-.805a3.83 3.83 0 0 0-1.817.437 3.237 3.237 0 0 0-1.311 1.173l-1.472-1.104a4.715 4.715 0 0 1 1.886-1.656c.812-.399 1.709-.598 2.691-.598 1.594 0 2.844.422 3.749 1.265.92.828 1.38 1.963 1.38 3.404v7.429h-1.863v-1.679h-.092c-.338.567-.844 1.05-1.518 1.449-.675.399-1.434.598-2.277.598Zm.184-1.725a3.54 3.54 0 0 0 1.84-.506 3.842 3.842 0 0 0 1.357-1.357 3.582 3.582 0 0 0 .506-1.863c-.368-.245-.821-.445-1.357-.598a6.17 6.17 0 0 0-1.702-.23c-1.074 0-1.886.222-2.438.667-.537.445-.805 1.02-.805 1.725 0 .644.245 1.165.736 1.564.49.399 1.111.598 1.863.598Zm8.285-15.111h1.955v16.468h-1.955V48.195Zm8.489 16.836c-.859 0-1.626-.169-2.3-.506-.675-.337-1.196-.797-1.564-1.38-.368-.598-.552-1.273-.552-2.024 0-1.242.467-2.208 1.403-2.898.935-.705 2.116-1.058 3.542-1.058.705 0 1.357.077 1.955.23.613.153 1.081.33 1.403.529v-.713c0-.874-.307-1.572-.92-2.093-.614-.537-1.388-.805-2.323-.805a3.83 3.83 0 0 0-1.817.437 3.237 3.237 0 0 0-1.311 1.173l-1.472-1.104a4.715 4.715 0 0 1 1.886-1.656c.812-.399 1.709-.598 2.691-.598 1.594 0 2.844.422 3.749 1.265.92.828 1.38 1.963 1.38 3.404v7.429h-1.863v-1.679h-.092c-.338.567-.844 1.05-1.518 1.449-.675.399-1.434.598-2.277.598Zm.184-1.725a3.54 3.54 0 0 0 1.84-.506 3.842 3.842 0 0 0 1.357-1.357 3.582 3.582 0 0 0 .506-1.863c-.368-.245-.821-.445-1.357-.598a6.17 6.17 0 0 0-1.702-.23c-1.074 0-1.886.222-2.438.667-.537.445-.805 1.02-.805 1.725 0 .644.245 1.165.736 1.564.49.399 1.111.598 1.863.598Zm8.285-10.373h1.863v1.725h.092c.322-.583.836-1.073 1.541-1.472a4.384 4.384 0 0 1 2.254-.621c1.411 0 2.484.414 3.22 1.242.752.813 1.127 1.924 1.127 3.335v7.521h-1.955v-7.222c0-1.089-.26-1.878-.782-2.369-.521-.49-1.234-.736-2.139-.736a2.91 2.91 0 0 0-1.702.529c-.49.353-.874.82-1.15 1.403a4.05 4.05 0 0 0-.414 1.794v6.601h-1.955v-11.73Zm17.933 17.066c-1.38 0-2.523-.322-3.427-.966-.89-.644-1.488-1.418-1.794-2.323l1.771-.759c.26.675.69 1.219 1.288 1.633.613.43 1.334.644 2.162.644 1.211 0 2.146-.353 2.806-1.058.674-.705 1.012-1.702 1.012-2.99v-1.311h-.092c-.384.598-.928 1.089-1.633 1.472-.69.368-1.48.552-2.369.552-1.012 0-1.94-.26-2.783-.782-.828-.521-1.488-1.25-1.978-2.185-.491-.935-.736-2.001-.736-3.197 0-1.18.245-2.239.736-3.174.49-.95 1.15-1.687 1.978-2.208a5.19 5.19 0 0 1 2.783-.782c.889 0 1.679.192 2.369.575.705.368 1.249.859 1.633 1.472h.092v-1.679h1.863v11.27c0 1.886-.522 3.32-1.564 4.301-1.043.997-2.415 1.495-4.117 1.495Zm0-6.877c.705 0 1.341-.176 1.909-.529.582-.353 1.042-.859 1.38-1.518.352-.66.529-1.441.529-2.346 0-.92-.177-1.71-.529-2.369-.338-.66-.798-1.158-1.38-1.495a3.545 3.545 0 0 0-1.909-.529c-.706 0-1.35.176-1.932.529-.583.353-1.051.859-1.403 1.518-.338.66-.506 1.441-.506 2.346s.168 1.694.506 2.369c.352.66.82 1.165 1.403 1.518a3.782 3.782 0 0 0 1.932.506Z" fill="#E3F2FD"/></svg>