<svg width="530" height="481" viewBox="0 0 530 481" fill="none" xmlns="http://www.w3.org/2000/svg">
<path fill-rule="evenodd" clip-rule="evenodd" d="M12.9228 271.767L17.7781 327.197L0 334.015L17.7781 457.676L71.0957 450.732L49.1348 260.308L12.9228 271.767Z" fill="#DDE3B4"/>
<path fill-rule="evenodd" clip-rule="evenodd" d="M391.695 211.314L376.556 443.09L436.444 450.732L455.111 220.02L391.695 211.314Z" fill="#DDE3B4"/>
<path fill-rule="evenodd" clip-rule="evenodd" d="M397.747 443.091L315.164 439.557L322.123 276.921L404.705 280.455L397.747 443.091Z" fill="#D4DBAD"/>
<path fill-rule="evenodd" clip-rule="evenodd" d="M441.525 242.139L439.005 296.983L418.752 293.407L422.367 443.801L491.256 446.749L505.778 273.679L441.525 242.139Z" fill="#D4DBAD"/>
<path fill-rule="evenodd" clip-rule="evenodd" d="M458.068 449.375L467.555 339.545L522.221 349.177L518.222 379.639L529.778 382.682L514.665 457.676L458.068 449.375Z" fill="#B7BD94"/>
<path fill-rule="evenodd" clip-rule="evenodd" d="M271.61 210.168L271.879 203.872L328.593 206.299L328.322 212.595L341.557 213.161L331.855 439.926L251.908 436.505L261.61 209.742L271.61 210.168Z" fill="#B7BD94"/>
<path fill-rule="evenodd" clip-rule="evenodd" d="M116.876 220.928L108.339 135.731L57.1653 140.408L87.7369 445.547L165.373 438.452L143.337 218.51L116.876 220.928Z" fill="#D4DBAD"/>
<path fill-rule="evenodd" clip-rule="evenodd" d="M102.688 229.733L38.0359 235.643L59.3265 448.146L123.979 442.236L102.688 229.733Z" fill="#B7BD94"/>
<path fill-rule="evenodd" clip-rule="evenodd" d="M186.477 207.315L194.168 284.087L204.472 283.145L219.899 441.163L152.001 439.673L133.077 250.771L186.477 207.315Z" fill="#B7BD94"/>
<path fill-rule="evenodd" clip-rule="evenodd" d="M405.555 195.282C405.774 196.991 406.162 199.191 405.651 200.838C397.806 202.943 390.722 203.671 385.662 207.996C380.297 212.583 378.629 221.291 382.236 227.359C376.919 227.542 371.417 223.043 370.327 217.835C369.236 212.628 371.453 207.076 375.242 203.342C379.031 199.607 384.197 197.521 389.433 196.575C394.669 195.629 400.235 195.17 405.556 195.282H405.555Z" fill="#747870"/>
<path fill-rule="evenodd" clip-rule="evenodd" d="M522.221 458.17C522.221 445.652 407.308 435.503 265.555 435.503C123.803 435.503 8.88843 445.65 8.88843 458.17C8.88843 470.687 123.802 480.837 265.555 480.837C407.308 480.837 522.221 470.688 522.221 458.17Z" fill="#ACAD90"/>
<path fill-rule="evenodd" clip-rule="evenodd" d="M343.6 161.278C337.829 161.801 335.773 163.842 330.002 164.365C340.879 257.674 351.753 350.983 362.629 444.291C365.739 444.291 369.857 445.663 372.968 445.663L343.6 161.276V161.278Z" fill="#4D4D4D"/>
<path fill-rule="evenodd" clip-rule="evenodd" d="M410.43 170.405C361.578 180.889 311.909 186.968 262.914 188.257C243.798 188.76 229.749 170.395 235.545 152.172C249.686 107.701 267.941 60.2964 287.139 16.6536C295.137 -1.53144 319.076 -5.77162 332.724 8.66389C366.993 44.9059 399.065 86.86 427.372 127.24C438.813 143.563 429.918 166.222 410.43 170.405Z" fill="black"/>
<path fill-rule="evenodd" clip-rule="evenodd" d="M399.484 162.232C356.723 171.409 313.244 176.729 270.358 177.857C253.624 178.297 241.327 162.222 246.401 146.27C258.779 107.344 274.759 65.8493 291.563 27.6471C298.566 11.73 319.519 8.01756 331.467 20.6531C361.463 52.3772 389.539 89.1015 414.315 124.448C424.33 138.737 416.543 158.57 399.485 162.232H399.484Z" fill="#FBBF0E"/>
<path d="M291.612 136.482L291.159 132.522C289.409 135.808 286.732 137.658 283.128 138.07C281.537 138.253 280.013 138.119 278.556 137.668C277.116 137.216 276.005 136.572 275.223 135.735C274.457 134.88 273.862 133.8 273.438 132.494C273.149 131.618 272.893 130.208 272.67 128.262L270.758 111.56L275.327 111.037L277.039 125.987C277.312 128.373 277.589 129.97 277.87 130.778C278.295 131.946 279.013 132.824 280.023 133.412C281.031 133.982 282.221 134.189 283.591 134.032C284.962 133.875 286.208 133.381 287.33 132.549C288.45 131.701 289.187 130.648 289.54 129.39C289.908 128.114 289.961 126.325 289.697 124.024L288.044 109.581L292.612 109.058L295.699 136.014L291.612 136.482ZM302.882 135.192L299.796 108.235L303.908 107.765L304.347 111.597C305.987 108.409 308.678 106.601 312.417 106.173C314.042 105.987 315.565 106.113 316.986 106.55C318.423 106.969 319.534 107.613 320.319 108.483C321.104 109.353 321.707 110.424 322.127 111.696C322.393 112.523 322.647 113.994 322.889 116.109L324.787 132.684L320.218 133.207L318.341 116.81C318.128 114.948 317.791 113.581 317.331 112.708C316.869 111.818 316.151 111.155 315.175 110.718C314.214 110.262 313.124 110.104 311.906 110.243C309.96 110.466 308.347 111.276 307.067 112.675C305.804 114.071 305.37 116.495 305.765 119.947L307.451 134.669L302.882 135.192ZM349.307 129.876L348.917 126.475C347.514 129.344 345.154 130.969 341.838 131.349C339.689 131.595 337.641 131.229 335.695 130.252C333.766 129.273 332.181 127.783 330.94 125.782C329.714 123.762 328.944 121.373 328.628 118.615C328.32 115.924 328.489 113.436 329.136 111.151C329.781 108.848 330.934 107.01 332.594 105.637C334.254 104.265 336.192 103.451 338.409 103.197C340.033 103.011 341.52 103.193 342.868 103.741C344.215 104.273 345.349 105.043 346.27 106.052L344.742 92.7005L349.285 92.1803L353.546 129.391L349.307 129.876ZM333.324 118.077C333.719 121.529 334.742 124.026 336.393 125.569C338.044 127.111 339.859 127.769 341.839 127.543C343.836 127.314 345.435 126.308 346.637 124.525C347.853 122.723 348.27 120.146 347.886 116.796C347.464 113.107 346.443 110.481 344.824 108.917C343.205 107.354 341.355 106.692 339.273 106.93C337.243 107.162 335.637 108.186 334.456 110.002C333.292 111.815 332.915 114.507 333.324 118.077ZM378.213 117.772L383.001 117.815C382.573 120.659 381.439 122.957 379.599 124.711C377.76 126.464 375.275 127.52 372.144 127.879C368.202 128.33 364.933 127.479 362.337 125.324C359.757 123.151 358.216 119.873 357.714 115.49C357.195 110.955 357.96 107.302 360.008 104.53C362.057 101.758 364.942 100.159 368.665 99.7333C372.269 99.3206 375.354 100.21 377.919 102.402C380.485 104.595 382.022 107.916 382.532 112.366C382.563 112.637 382.601 113.044 382.646 113.587L362.543 115.889C363.051 118.831 364.148 121.003 365.835 122.404C367.521 123.805 369.489 124.377 371.74 124.119C373.415 123.927 374.795 123.324 375.878 122.308C376.962 121.293 377.74 119.781 378.213 117.772ZM362.367 112.103L377.418 110.38C376.956 108.136 376.186 106.501 375.108 105.476C373.452 103.883 371.464 103.219 369.146 103.484C367.047 103.724 365.36 104.629 364.082 106.198C362.821 107.765 362.25 109.734 362.367 112.103ZM389.639 125.259L386.553 98.3024L390.665 97.8316L391.133 101.918C391.963 99.8859 392.783 98.5148 393.594 97.8049C394.421 97.093 395.367 96.676 396.433 96.554C397.973 96.3777 399.595 96.6892 401.298 97.4885L400.209 101.908C399.017 101.376 397.862 101.173 396.745 101.301C395.747 101.416 394.885 101.823 394.16 102.523C393.432 103.206 392.96 104.1 392.744 105.205C392.422 106.888 392.372 108.694 392.593 110.623L394.208 124.736L389.639 125.259Z" fill="#EB4A3D"/>
<path d="M283.381 158.968L285.39 158.999C285.33 160.388 284.897 161.522 284.091 162.4C283.291 163.27 282.243 163.779 280.945 163.927C279.32 164.113 277.95 163.734 276.837 162.788C275.731 161.835 275.064 160.366 274.837 158.382C274.69 157.1 274.774 155.953 275.089 154.942C275.404 153.932 275.967 153.138 276.777 152.562C277.594 151.977 278.513 151.627 279.535 151.51C280.825 151.362 281.918 151.569 282.813 152.132C283.708 152.686 284.339 153.551 284.708 154.725L282.785 155.251C282.507 154.475 282.107 153.912 281.583 153.564C281.068 153.215 280.474 153.079 279.803 153.156C278.789 153.272 278.006 153.732 277.456 154.535C276.905 155.331 276.72 156.516 276.9 158.09C277.083 159.685 277.521 160.81 278.215 161.463C278.91 162.117 279.749 162.387 280.733 162.274C281.524 162.184 282.156 161.866 282.63 161.321C283.104 160.775 283.354 159.991 283.381 158.968ZM286.152 157.042C285.9 154.842 286.325 153.142 287.427 151.943C288.348 150.946 289.543 150.364 291.012 150.196C292.645 150.009 294.041 150.393 295.201 151.348C296.359 152.296 297.047 153.713 297.263 155.6C297.438 157.128 297.344 158.359 296.983 159.292C296.628 160.217 296.038 160.972 295.214 161.557C294.397 162.142 293.47 162.493 292.433 162.612C290.77 162.802 289.363 162.423 288.212 161.475C287.068 160.525 286.382 159.048 286.152 157.042ZM288.221 156.805C288.395 158.326 288.858 159.429 289.609 160.114C290.359 160.791 291.237 161.072 292.244 160.956C293.243 160.842 294.031 160.367 294.608 159.53C295.184 158.693 295.383 157.496 295.205 155.937C295.037 154.468 294.574 153.395 293.816 152.719C293.066 152.034 292.194 151.749 291.202 151.862C290.196 151.978 289.404 152.45 288.826 153.279C288.249 154.108 288.047 155.283 288.221 156.805ZM300.333 161.435L298.973 149.556L300.785 149.349L300.979 151.038C301.702 149.633 302.887 148.836 304.535 148.647C305.251 148.565 305.922 148.621 306.549 148.813C307.182 148.998 307.672 149.282 308.018 149.665C308.364 150.049 308.629 150.521 308.814 151.081C308.932 151.445 309.044 152.094 309.15 153.026L309.987 160.33L307.973 160.561L307.146 153.335C307.052 152.514 306.904 151.912 306.701 151.527C306.497 151.135 306.181 150.843 305.751 150.65C305.327 150.449 304.847 150.379 304.31 150.441C303.452 150.539 302.742 150.896 302.178 151.512C301.621 152.128 301.43 153.196 301.604 154.717L302.347 161.205L300.333 161.435ZM311.874 156.522L313.829 155.981C314.032 156.766 314.412 157.342 314.967 157.709C315.531 158.075 316.271 158.205 317.188 158.1C318.113 157.995 318.778 157.73 319.182 157.306C319.586 156.874 319.759 156.405 319.701 155.898C319.649 155.443 319.41 155.107 318.985 154.892C318.689 154.744 317.977 154.595 316.849 154.445C315.33 154.241 314.268 154.038 313.663 153.835C313.064 153.624 312.589 153.297 312.236 152.854C311.889 152.403 311.683 151.886 311.616 151.304C311.556 150.775 311.619 150.273 311.807 149.798C312.001 149.315 312.289 148.9 312.673 148.554C312.959 148.287 313.362 148.045 313.881 147.827C314.407 147.6 314.979 147.452 315.598 147.381C316.53 147.274 317.362 147.315 318.094 147.503C318.833 147.69 319.397 147.996 319.785 148.42C320.173 148.836 320.474 149.421 320.689 150.175L318.751 150.669C318.592 150.067 318.276 149.62 317.804 149.327C317.34 149.032 316.716 148.93 315.933 149.02C315.008 149.125 314.366 149.354 314.006 149.705C313.645 150.056 313.489 150.436 313.536 150.847C313.566 151.108 313.675 151.333 313.863 151.523C314.051 151.721 314.329 151.87 314.696 151.972C314.906 152.023 315.518 152.127 316.533 152.283C318.001 152.5 319.029 152.699 319.616 152.881C320.21 153.055 320.694 153.355 321.068 153.781C321.441 154.206 321.668 154.762 321.746 155.448C321.823 156.119 321.698 156.776 321.371 157.418C321.051 158.051 320.54 158.574 319.839 158.987C319.138 159.392 318.321 159.648 317.389 159.755C315.845 159.931 314.63 159.746 313.744 159.197C312.865 158.648 312.242 157.756 311.874 156.522ZM328.729 156.36L329.224 158.105C328.671 158.289 328.17 158.407 327.723 158.458C326.992 158.542 326.412 158.491 325.983 158.306C325.554 158.121 325.236 157.851 325.029 157.497C324.822 157.136 324.649 156.351 324.51 155.143L323.728 148.308L322.251 148.477L322.072 146.911L323.548 146.742L323.212 143.801L325.076 142.363L325.551 146.513L327.575 146.281L327.755 147.847L325.73 148.079L326.525 155.026C326.591 155.6 326.667 155.965 326.753 156.121C326.846 156.277 326.977 156.394 327.144 156.473C327.32 156.551 327.556 156.573 327.855 156.539C328.078 156.514 328.37 156.454 328.729 156.36ZM330.893 157.937L329.533 146.057L331.345 145.85L331.551 147.651C331.917 146.755 332.279 146.151 332.636 145.838C333 145.524 333.417 145.341 333.887 145.287C334.566 145.209 335.28 145.346 336.031 145.699L335.551 147.646C335.026 147.412 334.517 147.322 334.025 147.379C333.585 147.429 333.205 147.609 332.885 147.917C332.564 148.218 332.356 148.612 332.261 149.099C332.119 149.841 332.097 150.637 332.194 151.487L332.906 157.706L330.893 157.937ZM346.329 156.169L346.13 154.424C345.359 155.872 344.179 156.687 342.591 156.869C341.89 156.95 341.218 156.89 340.576 156.692C339.941 156.493 339.451 156.209 339.107 155.84C338.769 155.463 338.507 154.987 338.32 154.412C338.193 154.026 338.08 153.404 337.982 152.547L337.139 145.186L339.153 144.956L339.907 151.544C340.027 152.596 340.15 153.299 340.273 153.656C340.461 154.17 340.777 154.557 341.222 154.816C341.667 155.067 342.191 155.159 342.795 155.089C343.399 155.02 343.948 154.802 344.442 154.436C344.936 154.062 345.261 153.598 345.416 153.044C345.579 152.481 345.602 151.693 345.486 150.679L344.757 144.314L346.77 144.084L348.13 155.963L346.329 156.169ZM358.55 150.362L360.559 150.392C360.499 151.782 360.066 152.916 359.26 153.794C358.46 154.663 357.412 155.172 356.114 155.321C354.489 155.507 353.119 155.127 352.006 154.182C350.9 153.228 350.233 151.76 350.006 149.776C349.859 148.493 349.943 147.347 350.258 146.336C350.573 145.325 351.136 144.532 351.946 143.956C352.763 143.371 353.682 143.02 354.704 142.903C355.994 142.756 357.087 142.963 357.982 143.525C358.877 144.08 359.508 144.945 359.877 146.119L357.954 146.645C357.676 145.868 357.276 145.306 356.752 144.958C356.236 144.609 355.643 144.473 354.972 144.55C353.958 144.666 353.175 145.126 352.625 145.929C352.074 146.725 351.889 147.91 352.069 149.483C352.252 151.079 352.69 152.204 353.384 152.857C354.079 153.51 354.918 153.781 355.902 153.668C356.693 153.577 357.325 153.26 357.799 152.714C358.273 152.169 358.523 151.385 358.55 150.362ZM366.94 151.985L367.435 153.73C366.881 153.914 366.381 154.032 365.934 154.083C365.203 154.167 364.623 154.116 364.194 153.931C363.765 153.746 363.447 153.477 363.24 153.122C363.032 152.761 362.859 151.976 362.721 150.768L361.939 143.934L360.462 144.103L360.283 142.537L361.759 142.368L361.422 139.426L363.286 137.988L363.762 142.138L365.786 141.906L365.966 143.472L363.941 143.704L364.736 150.651C364.802 151.225 364.878 151.59 364.964 151.747C365.057 151.902 365.188 152.019 365.355 152.098C365.53 152.177 365.767 152.199 366.065 152.164C366.289 152.139 366.581 152.079 366.94 151.985ZM367.525 139.475L367.26 137.159L369.273 136.929L369.538 139.244L367.525 139.475ZM369.137 153.558L367.777 141.678L369.791 141.448L371.151 153.327L369.137 153.558ZM372.797 147.121C372.546 144.921 372.971 143.222 374.072 142.023C374.993 141.026 376.188 140.444 377.657 140.275C379.29 140.088 380.687 140.472 381.846 141.428C383.005 142.375 383.692 143.793 383.908 145.679C384.083 147.208 383.99 148.439 383.628 149.372C383.273 150.296 382.684 151.051 381.859 151.637C381.042 152.221 380.115 152.573 379.079 152.692C377.416 152.882 376.009 152.503 374.858 151.554C373.714 150.605 373.027 149.127 372.797 147.121ZM374.867 146.884C375.041 148.406 375.503 149.509 376.254 150.193C377.004 150.87 377.883 151.151 378.889 151.036C379.889 150.922 380.676 150.446 381.253 149.61C381.83 148.773 382.029 147.575 381.85 146.017C381.682 144.548 381.219 143.475 380.462 142.799C379.711 142.114 378.84 141.828 377.848 141.942C376.841 142.057 376.049 142.53 375.472 143.359C374.894 144.188 374.693 145.363 374.867 146.884ZM386.979 151.515L385.619 139.636L387.431 139.428L387.624 141.117C388.347 139.712 389.533 138.916 391.181 138.727C391.897 138.645 392.568 138.7 393.194 138.893C393.827 139.077 394.317 139.361 394.663 139.745C395.009 140.128 395.275 140.6 395.46 141.161C395.577 141.525 395.689 142.173 395.796 143.106L396.632 150.41L394.619 150.64L393.791 143.414C393.697 142.594 393.549 141.992 393.346 141.607C393.143 141.215 392.826 140.922 392.396 140.73C391.973 140.529 391.493 140.459 390.956 140.521C390.098 140.619 389.387 140.976 388.823 141.592C388.267 142.207 388.075 143.276 388.249 144.797L388.992 151.285L386.979 151.515Z" fill="#EB4A3D"/>
<path fill-rule="evenodd" clip-rule="evenodd" d="M328.868 69.2347C327.695 54.2127 325.922 38.833 324.749 23.811C318.648 24.8415 312.117 26.9777 306.014 28.0081C308.555 42.1217 311.666 56.1312 315.333 69.9934C318.747 69.8019 325.452 69.4273 328.868 69.2347Z" fill="#EB4A3D"/>
<path fill-rule="evenodd" clip-rule="evenodd" d="M329.532 87.4162C325.808 87.8614 321.616 88.418 317.892 88.8632C316.827 85.4164 315.8 80.9321 314.735 77.4866C319.212 76.0553 323.945 75.4281 328.639 75.6412C328.825 79.3512 329.348 83.7062 329.533 87.4174L329.532 87.4162Z" fill="#EB4A3D"/>
<path fill-rule="evenodd" clip-rule="evenodd" d="M348.908 458.17C348.908 462.771 330.494 466.757 303.602 468.717C292.188 469.558 279.269 470.024 265.561 470.024C247.255 470.024 230.322 469.184 216.574 467.771C195.735 465.611 182.201 462.117 182.201 458.17C182.201 454.076 196.8 450.464 219 448.33C232.294 447.064 248.32 446.317 265.56 446.317C279.813 446.317 293.227 446.824 304.96 447.718C331.12 449.717 348.907 453.651 348.907 458.171L348.908 458.17Z" fill="#93937A"/>
<path fill-rule="evenodd" clip-rule="evenodd" d="M463.91 446.741C433.297 444.204 398.987 446.567 368.388 444.03C370.568 437.003 372.828 429.99 375.168 423.005C378.241 413.816 381.447 404.681 384.786 395.588C386.663 390.478 388.58 385.368 390.549 380.285C394.254 370.676 398.105 361.135 402.115 351.665C405.234 344.262 408.445 336.903 411.748 329.582C415.765 320.683 426.779 320.607 429.631 329.456C432.006 336.846 434.394 344.316 436.768 351.852C439.798 361.45 442.797 371.155 445.719 380.872C447.229 385.876 448.714 390.909 450.186 395.927C452.923 405.335 455.568 414.741 458.067 424.066C460.121 431.679 462.067 439.25 463.909 446.741H463.91Z" fill="#FBBF0E"/>
<path fill-rule="evenodd" clip-rule="evenodd" d="M445.72 380.873C427.32 381.793 408.961 381.579 390.549 380.286C394.254 370.677 398.105 361.137 402.115 351.667C413.662 351.729 425.222 351.792 436.769 351.853C439.799 361.451 442.799 371.156 445.72 380.873Z" fill="#EDF1EA"/>
<path fill-rule="evenodd" clip-rule="evenodd" d="M458.068 424.067C430.386 426.22 402.868 425.84 375.168 423.005C378.241 413.816 381.447 404.681 384.786 395.588C406.587 395.697 428.386 395.819 450.188 395.928C452.925 405.336 455.57 414.743 458.068 424.067Z" fill="#EDF1EA"/>
<path fill-rule="evenodd" clip-rule="evenodd" d="M481.678 454.826C481.738 449.938 479.144 445.684 470.25 443.302C463.614 441.492 404.909 441.901 372.237 441.2C367.981 441.109 363.574 441.045 359.654 442.706C355.734 444.367 352.419 448.257 352.832 452.495C365.637 460.731 455.165 463.877 481.678 454.827V454.826Z" fill="#EF9135"/>
<path fill-rule="evenodd" clip-rule="evenodd" d="M395.524 439.213C389.475 439.213 383.895 438.747 380.739 437.841C382.034 433.224 383.382 428.57 384.778 423.891C393.749 424.625 402.703 425.102 411.655 425.315C411.331 429.648 410.991 433.948 410.632 438.21C406.04 438.885 400.616 439.214 395.524 439.214V439.213ZM413.673 395.738C407.003 395.702 400.33 395.667 393.659 395.632C395.292 390.68 396.962 385.725 398.663 380.784C403.972 381.065 409.273 381.255 414.576 381.355C414.276 386.154 413.978 390.948 413.673 395.738ZM416.496 351.742C414.022 351.729 411.546 351.715 409.074 351.702C411.195 345.988 413.341 340.326 415.5 334.738C415.694 334.239 416.123 334.015 416.552 334.015C417.159 334.015 417.767 334.462 417.708 335.214C417.281 340.674 416.88 346.189 416.497 351.742H416.496Z" fill="#E38C38"/>
<path fill-rule="evenodd" clip-rule="evenodd" d="M414.576 381.356C409.275 381.258 403.971 381.067 398.663 380.785C402.028 371.011 405.517 361.284 409.072 351.703C411.546 351.716 414.022 351.729 416.495 351.742C415.819 361.534 415.196 371.443 414.576 381.355V381.356Z" fill="#DDD4BF"/>
<path fill-rule="evenodd" clip-rule="evenodd" d="M411.655 425.315C402.703 425.102 393.748 424.626 384.778 423.891C387.568 414.539 390.543 405.091 393.659 395.634C400.33 395.668 407.003 395.703 413.673 395.739C413.041 405.681 412.385 415.579 411.656 425.315H411.655Z" fill="#DDD4BF"/>
<path fill-rule="evenodd" clip-rule="evenodd" d="M140.908 245.19L147.888 251.837C147.888 251.837 174.415 246.223 178.484 256.696C178.484 256.696 185.261 230.546 140.907 245.19H140.908Z" fill="#747870"/>
<path fill-rule="evenodd" clip-rule="evenodd" d="M409.173 220.02L416.149 222.504C416.149 222.504 412.889 249.503 396.555 254.17C380.222 258.836 364.939 257.405 352.413 246.621L207.888 273.678C207.888 273.678 196.889 309.169 157.399 284.945L197.888 265.502L396.554 227.362L409.172 220.019L409.173 220.02Z" fill="#747870"/>
<path fill-rule="evenodd" clip-rule="evenodd" d="M232.377 239.155C232.377 239.155 226.888 217.726 240.997 214.392L249.618 235.833L232.378 239.155H232.377Z" fill="#F6BF88"/>
<path fill-rule="evenodd" clip-rule="evenodd" d="M409.173 220.02C403.299 222.027 397.248 223.518 391.115 224.473C385.569 225.336 378.923 225.336 375.523 220.871C372.5 216.9 373.875 211.048 376.969 207.129C380.556 202.586 398.473 196.587 405.681 195.353C398.715 184.862 384.258 181.437 371.959 184.147C364.805 185.723 357.882 189.193 353.238 194.86C348.596 200.526 346.109 210.164 348.602 217.053C307.101 224.629 209.406 243.62 201.974 245.015C201.835 237.69 196.063 229.581 189.697 225.953C183.334 222.326 175.627 221.564 168.383 222.653C155.929 224.526 143.656 232.901 140.908 245.189C145.871 245.729 152.323 244.599 157.29 244.093C162.255 243.587 167.509 243.596 171.935 245.905C176.361 248.212 179.604 253.428 178.205 258.219C176.629 263.605 170.422 265.984 164.936 267.164C158.866 268.469 152.684 269.242 146.479 269.472C150.558 281.896 162.057 291.265 175.124 290.81C188.192 290.354 200.379 280.519 203.581 267.841C211.651 266.705 228.114 264.453 228.114 264.453C232.152 263.806 331.083 244.404 331.083 244.404C339.241 242.598 347.32 240.771 355.271 238.94C362.801 249.631 377.701 254.45 390.066 250.197C402.43 245.943 409.812 233.077 409.172 220.017L409.173 220.02Z" fill="#81867D"/>
<path fill-rule="evenodd" clip-rule="evenodd" d="M331.737 226.819C327.943 227.472 324.152 228.126 320.358 228.779C319.832 228.87 319.318 228.963 318.817 229.077C305.248 231.448 291.681 233.82 278.113 236.191C269.175 237.753 260.238 239.314 251.301 240.876C246.834 241.658 242.369 242.458 237.907 243.283C233.363 244.123 227.951 244.123 224.083 247.407C221.822 249.327 222.678 254.259 225.453 255.304C229.686 256.899 234.111 255.464 238.179 254.803C242.658 254.077 247.133 253.344 251.604 252.573C260.545 251.033 269.486 249.493 278.427 247.954C292.56 245.52 306.693 243.085 320.824 240.651C321.336 240.589 321.851 240.504 322.375 240.412C326.168 239.749 329.959 239.087 333.75 238.424C336.177 238.006 336.885 234.893 336.38 231.991C335.878 229.089 334.163 226.396 331.737 226.82V226.819Z" fill="#60635E"/>
<path fill-rule="evenodd" clip-rule="evenodd" d="M242.978 249.946C244.679 253.063 246.675 256.13 249.299 258.333C251.924 260.537 255.287 261.743 257.902 260.723C261.703 259.242 262.649 253.886 262.472 249.036C262.205 241.766 260.324 234.205 257.041 227.216C254.503 221.81 250.731 216.39 245.758 214.262C226.211 205.899 238.346 241.47 242.978 249.949V249.946Z" fill="#F6C798"/>
<path fill-rule="evenodd" clip-rule="evenodd" d="M265.349 256.418C268.413 260.003 272.591 263.312 276.523 255.673C280.962 238.432 276.391 217.479 265.359 207.204C264.589 206.488 263.183 205.768 262.267 205.593C235.517 200.479 258.432 248.321 265.349 256.416V256.418Z" fill="#F6C798"/>
<path fill-rule="evenodd" clip-rule="evenodd" d="M277.472 248.92C279.848 253.862 283.826 258.809 287.851 256.891C290.018 255.861 291.531 252.983 292.207 249.915C292.883 246.849 292.851 243.575 292.798 240.368C292.682 233.412 292.467 226.267 290.492 219.887C287.447 210.045 276.325 201.214 270.903 213.365C266.667 222.858 273.688 241.046 277.474 248.92H277.472Z" fill="#F6C798"/>
<path fill-rule="evenodd" clip-rule="evenodd" d="M293.55 252.593C295.61 255.416 298.469 257.528 301.185 256.375C303.295 255.479 304.808 252.765 305.519 249.84C307.045 243.563 307.904 234.517 307.271 227.95C306.57 220.681 303.451 213.384 298.472 211.142C281.946 203.7 286.823 242.478 293.091 251.936C293.24 252.158 293.393 252.379 293.55 252.594V252.593Z" fill="#F6C798"/>
<path fill-rule="evenodd" clip-rule="evenodd" d="M243.923 288.754C248.877 295.118 243.538 325.057 241.222 331.004C260.889 342.171 291.889 339.171 311.394 331.194C306.702 318.366 302.67 300.316 310.155 284.262C313.483 281.638 319.569 275.603 323.36 273.992C327.149 272.383 330.616 269.577 332.102 265.737C336.597 254.114 327.328 235.512 327.51 223.564C327.583 218.635 328.552 208.931 320.488 209.042C317.685 209.08 315.433 211.347 313.875 213.678C307.51 223.2 306.517 244.652 313.183 253.964L235.506 268.506C235.506 268.506 234.992 277.28 243.923 288.753V288.754Z" fill="#F6BF88"/>
<path fill-rule="evenodd" clip-rule="evenodd" d="M315.045 331.504C313.858 362.518 307.361 416.078 304.961 447.717C304.427 454.758 303.961 461.771 303.602 468.717C292.188 469.557 279.269 470.024 265.561 470.024C247.255 470.024 230.322 469.184 216.574 467.771C217.375 461.29 218.188 454.811 219.002 448.33C223.162 415.037 230.139 360.49 234.299 327.197C260.952 329.584 288.392 329.117 315.045 331.504Z" fill="#498AF4"/>
<path fill-rule="evenodd" clip-rule="evenodd" d="M325.424 309.198C329.411 318.232 326.593 328.666 323.731 338.119C322.002 343.83 327.401 354.171 320.554 358.702C312.806 364.193 273.475 360.507 250.221 357.117C242.243 355.952 227.888 354.504 223.859 347.868C220.469 342.282 225.631 328.053 226.479 321.711C226.97 318.05 225.777 310.012 228.762 307.539C231.108 305.612 238.887 308.839 255.887 308.392C281.923 307.708 299.425 307.028 325.422 309.199L325.424 309.198Z" fill="#D0D0D0"/>
<path fill-rule="evenodd" clip-rule="evenodd" d="M380.995 248.199C382.907 241.438 385.113 234.641 387.537 228.043C384.429 227.782 381.211 228.029 378.103 227.766C374.558 233.787 370.348 239.417 365.575 244.522C369.789 247.38 375.911 247.928 380.996 248.199H380.995Z" fill="#8C9288"/>
<path fill-rule="evenodd" clip-rule="evenodd" d="M394.42 245.165C394.268 239.167 394.378 233.216 394.226 227.217C393.116 227.331 392.042 228.061 390.931 228.175C390.277 234.509 389.623 240.844 388.969 247.178C390.864 247.209 392.833 246.201 394.42 245.165Z" fill="#8C9288"/>
<path fill-rule="evenodd" clip-rule="evenodd" d="M195.559 276.833C195.081 276.251 196.008 275.255 196.623 275.693C197.238 276.13 196.602 277.335 195.893 277.072C190.112 272.329 184.721 267.627 178.94 262.884C178.058 263.889 176.326 265.605 175.444 266.611C180.454 271.517 185.679 276.205 191.098 280.655C192.504 280.237 194.584 277.931 195.559 276.835V276.833Z" fill="#8C9288"/>
<path fill-rule="evenodd" clip-rule="evenodd" d="M37.3801 377.81L38.3759 367.233C38.8665 367.221 39.3524 367.206 39.8443 367.194C42.9535 367.114 46.0747 367.047 49.2091 366.995C57.8641 366.814 66.597 366.688 75.3718 366.576C78.2644 366.533 81.169 366.505 84.0759 366.462C94.1947 366.347 104.34 366.248 114.445 366.12C117.38 366.079 120.301 366.036 123.206 366.008C133.256 365.861 143.236 365.684 153.106 365.442L152.137 376.473C114.062 377.468 75.4496 376.799 37.3813 377.812L37.3801 377.81ZM159.978 365.271C161.318 365.237 162.66 365.208 163.997 365.166C167.065 365.071 170.132 364.978 173.175 364.87C174.31 356.973 175.447 349.088 176.583 341.192C177.075 337.876 177.55 334.574 178.028 331.258C178.784 326.01 179.537 320.776 180.293 315.528C175.097 315.544 169.891 315.522 164.669 315.463C164.916 312.845 165.162 310.228 165.409 307.612C163.697 307.429 159.895 307.842 158.181 307.658L157.505 315.362C155.698 315.332 153.896 315.312 152.089 315.276C141.064 315.05 129.996 314.703 118.908 314.302C115.822 314.196 112.735 314.09 109.637 313.969C97.9849 313.55 86.3223 313.092 74.6777 312.727C71.7456 312.622 68.8134 312.531 65.8933 312.453C58.4374 312.24 50.9994 312.093 43.577 311.985L44.1 306.426C42.3479 306.681 38.6092 306.405 36.8571 306.66C36.7028 308.405 36.5496 310.151 36.3964 311.897C35.0141 311.885 33.6235 311.853 32.2424 311.847C29.26 311.822 26.2872 311.823 23.3276 311.839L23.3156 312.173C22.8812 321.608 21.9477 331.429 21.0298 341.234L21.0286 341.247C20.7677 343.953 20.5236 346.643 20.2914 349.348C19.7397 355.585 19.2657 361.767 18.9953 367.792C23.1385 367.65 27.3164 367.526 31.5111 367.412C31.2 370.946 30.8888 374.483 30.5777 378.018C26.128 378.162 21.6844 378.322 17.254 378.523C16.4378 396.661 13.739 416.314 12.9216 434.452C17.1462 434.128 21.4104 433.825 25.6924 433.529C25.0414 440.934 24.3891 448.337 23.7381 455.742C25.7858 455.702 27.9471 456.279 29.9948 456.239L32.1742 433.09C70.1155 430.597 109.837 428.996 147.74 426.482L145.321 454.011C147.369 453.971 149.642 453.322 151.69 453.283C152.545 444.201 153.4 435.12 154.256 426.036C158.117 425.767 161.966 425.491 165.78 425.199C168.149 408.714 170.517 392.229 172.886 375.745C168.249 375.956 163.598 376.121 158.943 376.27C159.288 372.604 159.633 368.937 159.978 365.272V365.271Z" fill="#51402F"/>
<path fill-rule="evenodd" clip-rule="evenodd" d="M169.558 307.647C171.498 356.258 173.437 404.87 175.377 453.482C173.335 453.522 171.153 454.171 169.113 454.212L162.346 307.693C164.083 307.877 167.824 307.463 169.558 307.647Z" fill="#51402F"/>
<path fill-rule="evenodd" clip-rule="evenodd" d="M41.0254 306.696C43.316 356.445 45.6066 406.195 47.8973 455.945C49.9378 455.906 52.1733 456.484 54.2138 456.444L48.2276 306.461C46.5114 306.716 42.7403 306.441 41.0242 306.696H41.0254Z" fill="#51402F"/>
<path fill-rule="evenodd" clip-rule="evenodd" d="M185.488 315.571C185.434 320.823 185.382 326.064 185.328 331.318C185.302 334.638 185.261 337.945 185.221 341.264C185.141 349.171 185.061 357.064 184.981 364.971C181.967 365.078 178.914 365.171 175.861 365.265C174.209 365.318 172.542 365.371 170.874 365.412C169.874 365.438 168.861 365.451 167.861 365.479C161.154 365.652 154.367 365.798 147.554 365.906C143.461 365.986 139.341 366.039 135.221 366.106C132.327 366.145 129.422 366.186 126.488 366.226C122.448 366.279 118.409 366.332 114.356 366.358C108.302 366.439 102.249 366.506 96.2088 366.571C95.5685 366.585 94.9295 366.585 94.2892 366.598C92.0225 366.624 89.769 366.652 87.5286 366.678C78.7826 366.798 70.076 366.918 61.4485 367.105L61.0751 367.118C58.0747 367.158 55.0888 367.225 52.1148 367.305C47.7143 367.412 43.3412 367.518 38.9945 367.652C36.4346 367.732 33.9011 367.812 31.3675 367.893C30.8337 361.866 30.4879 355.68 30.1947 349.44C30.0618 346.732 29.9541 344.027 29.8476 341.319V341.306C29.4479 331.493 29.0745 321.666 28.2343 312.213L28.208 311.879C31.1545 311.866 34.1285 311.866 37.1144 311.892C41.4479 311.918 45.8078 311.959 50.1676 312.039C57.0216 312.132 63.9138 312.293 70.8072 312.493C71.3542 312.506 71.9011 312.519 72.4468 312.547C74.82 312.614 77.2208 312.679 79.6203 312.773C88.0468 313.026 96.4996 313.346 104.94 313.652C108.193 313.772 111.447 313.893 114.7 314.013C117.807 314.132 120.914 314.239 124.006 314.347C124.393 314.36 124.766 314.373 125.153 314.386C135.9 314.773 146.606 315.106 157.273 315.319C157.42 315.319 157.579 315.333 157.727 315.333C161.181 315.4 164.607 315.452 168.033 315.493C172.54 315.56 177.02 315.573 181.499 315.573H185.486L185.488 315.571Z" fill="#F2F2E7"/>
<path fill-rule="evenodd" clip-rule="evenodd" d="M186.155 375.864C185.994 392.358 185.848 408.864 185.688 425.371C177.288 426.025 168.742 426.611 160.115 427.158C151.795 427.692 143.395 428.185 134.956 428.652C124.556 429.238 114.103 429.785 103.662 430.345C96.1693 430.745 88.6751 431.146 81.2359 431.572C70.7426 432.158 60.3294 432.785 50.0623 433.491C44.7426 433.852 39.4756 434.225 34.2493 434.638C33.2632 423.571 32.8898 411.945 32.4099 400.438C32.076 393.064 31.7026 385.732 31.0767 378.637C32.9963 378.544 34.9171 378.464 36.8367 378.411C44.2232 378.105 51.6636 377.892 59.1171 377.731C70.0772 377.505 81.0899 377.397 92.1302 377.332C98.8632 377.292 105.597 377.265 112.344 377.238C123.358 377.184 134.357 377.132 145.33 376.984C153.157 376.878 160.97 376.731 168.743 376.505C174.57 376.331 180.37 376.131 186.156 375.864H186.155Z" fill="#F2F2E7"/>
<path fill-rule="evenodd" clip-rule="evenodd" d="M92.1289 377.33C88.5027 395.423 84.8621 413.503 81.2359 431.57C70.7425 432.157 60.3294 432.784 50.0623 433.49C52.7418 414.783 55.7685 396.183 59.1159 377.73C70.0759 377.504 81.0887 377.396 92.1289 377.33Z" fill="#EB4A3D"/>
<path fill-rule="evenodd" clip-rule="evenodd" d="M104.942 313.651C101.395 331.277 97.8353 348.945 94.2881 366.597C92.0214 366.624 89.7679 366.651 87.5275 366.677C78.7815 366.797 70.0749 366.918 61.4474 367.105L61.074 367.118C64.5279 348.771 68.3276 330.585 72.4469 312.545C74.8201 312.612 77.2209 312.678 79.6204 312.771C88.0469 313.025 96.4997 313.344 104.941 313.651H104.942Z" fill="#EB4A3D"/>
<path fill-rule="evenodd" clip-rule="evenodd" d="M145.329 376.983C141.875 394.224 138.41 411.45 134.956 428.65C124.556 429.237 114.103 429.783 103.662 430.344C106.235 412.531 109.129 394.823 112.343 377.237C123.356 377.183 134.356 377.13 145.329 376.983Z" fill="#EB4A3D"/>
<path fill-rule="evenodd" clip-rule="evenodd" d="M157.729 315.33C154.329 332.17 150.942 349.036 147.555 365.904C143.462 365.984 139.342 366.036 135.222 366.103C132.329 366.143 129.423 366.184 126.49 366.223C122.449 366.277 118.41 366.33 114.357 366.356C117.663 348.889 121.25 331.569 125.156 314.382C135.903 314.769 146.61 315.103 157.277 315.316C157.424 315.316 157.583 315.329 157.73 315.329L157.729 315.33Z" fill="#EB4A3D"/>
<path fill-rule="evenodd" clip-rule="evenodd" d="M175.861 365.265C174.209 365.317 172.542 365.371 170.875 365.411C174.127 348.677 177.675 332.05 181.501 315.571H185.487C185.433 320.823 185.381 326.064 185.327 331.318C185.3 334.638 185.26 337.945 185.22 341.264C185.14 349.171 185.06 357.064 184.98 364.971C181.966 365.078 178.913 365.171 175.86 365.265H175.861Z" fill="#EB4A3D"/>
<path fill-rule="evenodd" clip-rule="evenodd" d="M186.155 375.864C185.995 392.358 185.849 408.864 185.688 425.371C177.288 426.025 168.742 426.611 160.115 427.158C162.715 410.171 165.582 393.279 168.742 376.505C174.569 376.331 180.369 376.131 186.155 375.864Z" fill="#EB4A3D"/>
<path fill-rule="evenodd" clip-rule="evenodd" d="M31.0754 378.637C32.9951 378.544 34.9159 378.464 36.8355 378.411C35.3551 385.758 33.8759 393.105 32.4086 400.438C32.0747 393.064 31.7014 385.732 31.0754 378.637Z" fill="#EB4A3D"/>
<path fill-rule="evenodd" clip-rule="evenodd" d="M50.1689 312.038C46.4493 330.571 42.7153 349.117 38.9958 367.651C36.4359 367.731 33.9023 367.811 31.3687 367.891C30.835 361.864 30.4891 355.678 30.1959 349.438C30.063 346.731 29.9553 344.025 29.8488 341.318V341.305C29.4491 331.491 29.0757 321.665 28.2356 312.211L28.2092 311.877C31.1557 311.864 34.1297 311.864 37.1156 311.89C41.4492 311.917 45.809 311.957 50.1689 312.036V312.038Z" fill="#EB4A3D"/>
</svg>
